<mxfile host="app.diagrams.net" modified="2022-12-06T03:13:42.518Z" agent="5.0 (Windows NT 10.0; Win64; x64) AppleWebKit/537.36 (KHTML, like Gecko) Chrome/104.0.0.0 Safari/537.36" etag="uwcqih_7UgguOgwO6xmu" version="20.5.3" type="github">
  <diagram id="FtoD-XMlUUmFFMKcjNig" name="Page-1">
    <mxGraphModel dx="2073" dy="979" grid="0" gridSize="10" guides="1" tooltips="1" connect="1" arrows="1" fold="1" page="0" pageScale="1" pageWidth="850" pageHeight="1100" math="0" shadow="0">
      <root>
        <mxCell id="0" />
        <mxCell id="1" parent="0" />
        <mxCell id="fuLUhrhGmzlqj12-KXZk-128" value="" style="rounded=0;whiteSpace=wrap;html=1;" vertex="1" parent="1">
          <mxGeometry x="-146" y="900" width="720" height="70" as="geometry" />
        </mxCell>
        <mxCell id="fuLUhrhGmzlqj12-KXZk-9" value="" style="group;flipH=1;flipV=1;" vertex="1" connectable="0" parent="1">
          <mxGeometry x="217" y="982" width="139" height="41" as="geometry" />
        </mxCell>
        <mxCell id="fuLUhrhGmzlqj12-KXZk-10" value="广告特征" style="rounded=1;whiteSpace=wrap;html=1;fontSize=16;strokeWidth=2;flipH=1;flipV=1;fillColor=#dae8fc;strokeColor=#6c8ebf;" vertex="1" parent="fuLUhrhGmzlqj12-KXZk-9">
          <mxGeometry y="2.5" width="139" height="41" as="geometry" />
        </mxCell>
        <mxCell id="fuLUhrhGmzlqj12-KXZk-68" value="" style="group;flipH=1;flipV=1;" vertex="1" connectable="0" parent="1">
          <mxGeometry x="40" y="982" width="139" height="41" as="geometry" />
        </mxCell>
        <mxCell id="fuLUhrhGmzlqj12-KXZk-69" value="用户特征" style="rounded=1;whiteSpace=wrap;html=1;fontSize=16;strokeWidth=2;flipH=1;flipV=1;fillColor=#dae8fc;strokeColor=#6c8ebf;" vertex="1" parent="fuLUhrhGmzlqj12-KXZk-68">
          <mxGeometry y="-1" width="139" height="41" as="geometry" />
        </mxCell>
        <mxCell id="fuLUhrhGmzlqj12-KXZk-71" value="" style="group;flipH=1;flipV=1;" vertex="1" connectable="0" parent="1">
          <mxGeometry x="384" y="982" width="139" height="41" as="geometry" />
        </mxCell>
        <mxCell id="fuLUhrhGmzlqj12-KXZk-72" value="上下文特征" style="rounded=1;whiteSpace=wrap;html=1;fontSize=16;strokeWidth=2;flipH=1;flipV=1;fillColor=#dae8fc;strokeColor=#6c8ebf;" vertex="1" parent="fuLUhrhGmzlqj12-KXZk-71">
          <mxGeometry x="10" width="139" height="41" as="geometry" />
        </mxCell>
        <mxCell id="fuLUhrhGmzlqj12-KXZk-95" value="" style="group" vertex="1" connectable="0" parent="1">
          <mxGeometry x="36.5" y="920" width="140" height="40" as="geometry" />
        </mxCell>
        <mxCell id="fuLUhrhGmzlqj12-KXZk-73" value="" style="group" vertex="1" connectable="0" parent="fuLUhrhGmzlqj12-KXZk-95">
          <mxGeometry width="120" height="20" as="geometry" />
        </mxCell>
        <mxCell id="fuLUhrhGmzlqj12-KXZk-26" value="" style="rounded=0;whiteSpace=wrap;html=1;fillColor=#f5f5f5;strokeColor=#666666;fontColor=#333333;container=0;" vertex="1" parent="fuLUhrhGmzlqj12-KXZk-73">
          <mxGeometry width="30" height="20" as="geometry" />
        </mxCell>
        <mxCell id="fuLUhrhGmzlqj12-KXZk-27" value="" style="rounded=0;whiteSpace=wrap;html=1;container=0;" vertex="1" parent="fuLUhrhGmzlqj12-KXZk-73">
          <mxGeometry x="30" width="30" height="20" as="geometry" />
        </mxCell>
        <mxCell id="fuLUhrhGmzlqj12-KXZk-28" value="" style="rounded=0;whiteSpace=wrap;html=1;fillColor=#f5f5f5;strokeColor=#666666;fontColor=#333333;container=0;" vertex="1" parent="fuLUhrhGmzlqj12-KXZk-73">
          <mxGeometry x="60" width="30" height="20" as="geometry" />
        </mxCell>
        <mxCell id="fuLUhrhGmzlqj12-KXZk-29" value="" style="rounded=0;whiteSpace=wrap;html=1;container=0;" vertex="1" parent="fuLUhrhGmzlqj12-KXZk-73">
          <mxGeometry x="90" width="30" height="20" as="geometry" />
        </mxCell>
        <mxCell id="fuLUhrhGmzlqj12-KXZk-85" value="" style="group" vertex="1" connectable="0" parent="fuLUhrhGmzlqj12-KXZk-95">
          <mxGeometry x="10" y="10" width="120" height="20" as="geometry" />
        </mxCell>
        <mxCell id="fuLUhrhGmzlqj12-KXZk-86" value="" style="rounded=0;whiteSpace=wrap;html=1;fillColor=#f5f5f5;strokeColor=#666666;fontColor=#333333;container=0;" vertex="1" parent="fuLUhrhGmzlqj12-KXZk-85">
          <mxGeometry width="30" height="20" as="geometry" />
        </mxCell>
        <mxCell id="fuLUhrhGmzlqj12-KXZk-87" value="" style="rounded=0;whiteSpace=wrap;html=1;container=0;" vertex="1" parent="fuLUhrhGmzlqj12-KXZk-85">
          <mxGeometry x="30" width="30" height="20" as="geometry" />
        </mxCell>
        <mxCell id="fuLUhrhGmzlqj12-KXZk-88" value="" style="rounded=0;whiteSpace=wrap;html=1;fillColor=#f5f5f5;strokeColor=#666666;fontColor=#333333;container=0;" vertex="1" parent="fuLUhrhGmzlqj12-KXZk-85">
          <mxGeometry x="60" width="30" height="20" as="geometry" />
        </mxCell>
        <mxCell id="fuLUhrhGmzlqj12-KXZk-89" value="" style="rounded=0;whiteSpace=wrap;html=1;container=0;" vertex="1" parent="fuLUhrhGmzlqj12-KXZk-85">
          <mxGeometry x="90" width="30" height="20" as="geometry" />
        </mxCell>
        <mxCell id="fuLUhrhGmzlqj12-KXZk-90" value="" style="group" vertex="1" connectable="0" parent="fuLUhrhGmzlqj12-KXZk-95">
          <mxGeometry x="20" y="20" width="120" height="20" as="geometry" />
        </mxCell>
        <mxCell id="fuLUhrhGmzlqj12-KXZk-91" value="" style="rounded=0;whiteSpace=wrap;html=1;fillColor=#f5f5f5;strokeColor=#666666;fontColor=#333333;container=0;" vertex="1" parent="fuLUhrhGmzlqj12-KXZk-90">
          <mxGeometry width="30" height="20" as="geometry" />
        </mxCell>
        <mxCell id="fuLUhrhGmzlqj12-KXZk-92" value="" style="rounded=0;whiteSpace=wrap;html=1;container=0;" vertex="1" parent="fuLUhrhGmzlqj12-KXZk-90">
          <mxGeometry x="30" width="30" height="20" as="geometry" />
        </mxCell>
        <mxCell id="fuLUhrhGmzlqj12-KXZk-93" value="" style="rounded=0;whiteSpace=wrap;html=1;fillColor=#ffe6cc;strokeColor=#d79b00;container=0;" vertex="1" parent="fuLUhrhGmzlqj12-KXZk-90">
          <mxGeometry x="60" width="30" height="20" as="geometry" />
        </mxCell>
        <mxCell id="fuLUhrhGmzlqj12-KXZk-94" value="" style="rounded=0;whiteSpace=wrap;html=1;container=0;" vertex="1" parent="fuLUhrhGmzlqj12-KXZk-90">
          <mxGeometry x="90" width="30" height="20" as="geometry" />
        </mxCell>
        <mxCell id="fuLUhrhGmzlqj12-KXZk-96" value="" style="group" vertex="1" connectable="0" parent="1">
          <mxGeometry x="204" y="920" width="140" height="40" as="geometry" />
        </mxCell>
        <mxCell id="fuLUhrhGmzlqj12-KXZk-97" value="" style="group" vertex="1" connectable="0" parent="fuLUhrhGmzlqj12-KXZk-96">
          <mxGeometry width="120" height="20" as="geometry" />
        </mxCell>
        <mxCell id="fuLUhrhGmzlqj12-KXZk-98" value="" style="rounded=0;whiteSpace=wrap;html=1;fillColor=#f5f5f5;strokeColor=#666666;fontColor=#333333;container=0;" vertex="1" parent="fuLUhrhGmzlqj12-KXZk-97">
          <mxGeometry width="30" height="20" as="geometry" />
        </mxCell>
        <mxCell id="fuLUhrhGmzlqj12-KXZk-99" value="" style="rounded=0;whiteSpace=wrap;html=1;container=0;" vertex="1" parent="fuLUhrhGmzlqj12-KXZk-97">
          <mxGeometry x="30" width="30" height="20" as="geometry" />
        </mxCell>
        <mxCell id="fuLUhrhGmzlqj12-KXZk-100" value="" style="rounded=0;whiteSpace=wrap;html=1;fillColor=#f5f5f5;strokeColor=#666666;fontColor=#333333;container=0;" vertex="1" parent="fuLUhrhGmzlqj12-KXZk-97">
          <mxGeometry x="60" width="30" height="20" as="geometry" />
        </mxCell>
        <mxCell id="fuLUhrhGmzlqj12-KXZk-101" value="" style="rounded=0;whiteSpace=wrap;html=1;container=0;" vertex="1" parent="fuLUhrhGmzlqj12-KXZk-97">
          <mxGeometry x="90" width="30" height="20" as="geometry" />
        </mxCell>
        <mxCell id="fuLUhrhGmzlqj12-KXZk-102" value="" style="group" vertex="1" connectable="0" parent="fuLUhrhGmzlqj12-KXZk-96">
          <mxGeometry x="10" y="10" width="120" height="20" as="geometry" />
        </mxCell>
        <mxCell id="fuLUhrhGmzlqj12-KXZk-103" value="" style="rounded=0;whiteSpace=wrap;html=1;fillColor=#f5f5f5;strokeColor=#666666;fontColor=#333333;container=0;" vertex="1" parent="fuLUhrhGmzlqj12-KXZk-102">
          <mxGeometry width="30" height="20" as="geometry" />
        </mxCell>
        <mxCell id="fuLUhrhGmzlqj12-KXZk-104" value="" style="rounded=0;whiteSpace=wrap;html=1;container=0;" vertex="1" parent="fuLUhrhGmzlqj12-KXZk-102">
          <mxGeometry x="30" width="30" height="20" as="geometry" />
        </mxCell>
        <mxCell id="fuLUhrhGmzlqj12-KXZk-105" value="" style="rounded=0;whiteSpace=wrap;html=1;fillColor=#f5f5f5;strokeColor=#666666;fontColor=#333333;container=0;" vertex="1" parent="fuLUhrhGmzlqj12-KXZk-102">
          <mxGeometry x="60" width="30" height="20" as="geometry" />
        </mxCell>
        <mxCell id="fuLUhrhGmzlqj12-KXZk-106" value="" style="rounded=0;whiteSpace=wrap;html=1;container=0;" vertex="1" parent="fuLUhrhGmzlqj12-KXZk-102">
          <mxGeometry x="90" width="30" height="20" as="geometry" />
        </mxCell>
        <mxCell id="fuLUhrhGmzlqj12-KXZk-107" value="" style="group;fillColor=#e1d5e7;strokeColor=#9673a6;" vertex="1" connectable="0" parent="fuLUhrhGmzlqj12-KXZk-96">
          <mxGeometry x="20" y="20" width="120" height="20" as="geometry" />
        </mxCell>
        <mxCell id="fuLUhrhGmzlqj12-KXZk-108" value="" style="rounded=0;whiteSpace=wrap;html=1;fillColor=#f5f5f5;strokeColor=#666666;fontColor=#333333;container=0;" vertex="1" parent="fuLUhrhGmzlqj12-KXZk-107">
          <mxGeometry width="30" height="20" as="geometry" />
        </mxCell>
        <mxCell id="fuLUhrhGmzlqj12-KXZk-109" value="" style="rounded=0;whiteSpace=wrap;html=1;container=0;" vertex="1" parent="fuLUhrhGmzlqj12-KXZk-107">
          <mxGeometry x="30" width="30" height="20" as="geometry" />
        </mxCell>
        <mxCell id="fuLUhrhGmzlqj12-KXZk-110" value="" style="rounded=0;whiteSpace=wrap;html=1;fillColor=#e1d5e7;strokeColor=#9673a6;container=0;" vertex="1" parent="fuLUhrhGmzlqj12-KXZk-107">
          <mxGeometry x="60" width="30" height="20" as="geometry" />
        </mxCell>
        <mxCell id="fuLUhrhGmzlqj12-KXZk-111" value="" style="rounded=0;whiteSpace=wrap;html=1;container=0;" vertex="1" parent="fuLUhrhGmzlqj12-KXZk-107">
          <mxGeometry x="90" width="30" height="20" as="geometry" />
        </mxCell>
        <mxCell id="fuLUhrhGmzlqj12-KXZk-112" value="" style="group" vertex="1" connectable="0" parent="1">
          <mxGeometry x="394" y="920" width="140" height="40" as="geometry" />
        </mxCell>
        <mxCell id="fuLUhrhGmzlqj12-KXZk-113" value="" style="group" vertex="1" connectable="0" parent="fuLUhrhGmzlqj12-KXZk-112">
          <mxGeometry width="120" height="20" as="geometry" />
        </mxCell>
        <mxCell id="fuLUhrhGmzlqj12-KXZk-114" value="" style="rounded=0;whiteSpace=wrap;html=1;fillColor=#f5f5f5;strokeColor=#666666;fontColor=#333333;container=0;" vertex="1" parent="fuLUhrhGmzlqj12-KXZk-113">
          <mxGeometry width="30" height="20" as="geometry" />
        </mxCell>
        <mxCell id="fuLUhrhGmzlqj12-KXZk-115" value="" style="rounded=0;whiteSpace=wrap;html=1;container=0;" vertex="1" parent="fuLUhrhGmzlqj12-KXZk-113">
          <mxGeometry x="30" width="30" height="20" as="geometry" />
        </mxCell>
        <mxCell id="fuLUhrhGmzlqj12-KXZk-116" value="" style="rounded=0;whiteSpace=wrap;html=1;fillColor=#f5f5f5;strokeColor=#666666;fontColor=#333333;container=0;" vertex="1" parent="fuLUhrhGmzlqj12-KXZk-113">
          <mxGeometry x="60" width="30" height="20" as="geometry" />
        </mxCell>
        <mxCell id="fuLUhrhGmzlqj12-KXZk-117" value="" style="rounded=0;whiteSpace=wrap;html=1;container=0;" vertex="1" parent="fuLUhrhGmzlqj12-KXZk-113">
          <mxGeometry x="90" width="30" height="20" as="geometry" />
        </mxCell>
        <mxCell id="fuLUhrhGmzlqj12-KXZk-118" value="" style="group" vertex="1" connectable="0" parent="fuLUhrhGmzlqj12-KXZk-112">
          <mxGeometry x="10" y="10" width="120" height="20" as="geometry" />
        </mxCell>
        <mxCell id="fuLUhrhGmzlqj12-KXZk-119" value="" style="rounded=0;whiteSpace=wrap;html=1;fillColor=#f5f5f5;strokeColor=#666666;fontColor=#333333;container=0;" vertex="1" parent="fuLUhrhGmzlqj12-KXZk-118">
          <mxGeometry width="30" height="20" as="geometry" />
        </mxCell>
        <mxCell id="fuLUhrhGmzlqj12-KXZk-120" value="" style="rounded=0;whiteSpace=wrap;html=1;container=0;" vertex="1" parent="fuLUhrhGmzlqj12-KXZk-118">
          <mxGeometry x="30" width="30" height="20" as="geometry" />
        </mxCell>
        <mxCell id="fuLUhrhGmzlqj12-KXZk-121" value="" style="rounded=0;whiteSpace=wrap;html=1;fillColor=#f5f5f5;strokeColor=#666666;fontColor=#333333;container=0;" vertex="1" parent="fuLUhrhGmzlqj12-KXZk-118">
          <mxGeometry x="60" width="30" height="20" as="geometry" />
        </mxCell>
        <mxCell id="fuLUhrhGmzlqj12-KXZk-122" value="" style="rounded=0;whiteSpace=wrap;html=1;container=0;" vertex="1" parent="fuLUhrhGmzlqj12-KXZk-118">
          <mxGeometry x="90" width="30" height="20" as="geometry" />
        </mxCell>
        <mxCell id="fuLUhrhGmzlqj12-KXZk-123" value="" style="group" vertex="1" connectable="0" parent="fuLUhrhGmzlqj12-KXZk-112">
          <mxGeometry x="20" y="20" width="120" height="20" as="geometry" />
        </mxCell>
        <mxCell id="fuLUhrhGmzlqj12-KXZk-124" value="" style="rounded=0;whiteSpace=wrap;html=1;fillColor=#f5f5f5;strokeColor=#666666;fontColor=#333333;container=0;" vertex="1" parent="fuLUhrhGmzlqj12-KXZk-123">
          <mxGeometry width="30" height="20" as="geometry" />
        </mxCell>
        <mxCell id="fuLUhrhGmzlqj12-KXZk-125" value="" style="rounded=0;whiteSpace=wrap;html=1;container=0;" vertex="1" parent="fuLUhrhGmzlqj12-KXZk-123">
          <mxGeometry x="30" width="30" height="20" as="geometry" />
        </mxCell>
        <mxCell id="fuLUhrhGmzlqj12-KXZk-126" value="" style="rounded=0;whiteSpace=wrap;html=1;fillColor=#d5e8d4;strokeColor=#82b366;container=0;" vertex="1" parent="fuLUhrhGmzlqj12-KXZk-123">
          <mxGeometry x="60" width="30" height="20" as="geometry" />
        </mxCell>
        <mxCell id="fuLUhrhGmzlqj12-KXZk-127" value="" style="rounded=0;whiteSpace=wrap;html=1;container=0;" vertex="1" parent="fuLUhrhGmzlqj12-KXZk-123">
          <mxGeometry x="90" width="30" height="20" as="geometry" />
        </mxCell>
        <mxCell id="fuLUhrhGmzlqj12-KXZk-129" value="Embedding Lookup" style="text;html=1;align=center;verticalAlign=middle;resizable=0;points=[];autosize=1;strokeColor=none;fillColor=none;fontSize=16;" vertex="1" parent="1">
          <mxGeometry x="-311" y="915" width="160" height="30" as="geometry" />
        </mxCell>
        <mxCell id="fuLUhrhGmzlqj12-KXZk-130" value="Wuid" style="ellipse;whiteSpace=wrap;html=1;aspect=fixed;fillColor=#fff2cc;strokeColor=#d6b656;" vertex="1" parent="1">
          <mxGeometry x="-65" y="993" width="30" height="30" as="geometry" />
        </mxCell>
        <mxCell id="fuLUhrhGmzlqj12-KXZk-131" value="" style="group" vertex="1" connectable="0" parent="1">
          <mxGeometry x="-120" y="920" width="140" height="40" as="geometry" />
        </mxCell>
        <mxCell id="fuLUhrhGmzlqj12-KXZk-132" value="" style="group" vertex="1" connectable="0" parent="fuLUhrhGmzlqj12-KXZk-131">
          <mxGeometry width="120" height="20" as="geometry" />
        </mxCell>
        <mxCell id="fuLUhrhGmzlqj12-KXZk-133" value="" style="rounded=0;whiteSpace=wrap;html=1;fillColor=#f5f5f5;strokeColor=#666666;fontColor=#333333;container=0;" vertex="1" parent="fuLUhrhGmzlqj12-KXZk-132">
          <mxGeometry width="30" height="20" as="geometry" />
        </mxCell>
        <mxCell id="fuLUhrhGmzlqj12-KXZk-134" value="" style="rounded=0;whiteSpace=wrap;html=1;container=0;" vertex="1" parent="fuLUhrhGmzlqj12-KXZk-132">
          <mxGeometry x="30" width="30" height="20" as="geometry" />
        </mxCell>
        <mxCell id="fuLUhrhGmzlqj12-KXZk-135" value="" style="rounded=0;whiteSpace=wrap;html=1;fillColor=#f5f5f5;strokeColor=#666666;fontColor=#333333;container=0;" vertex="1" parent="fuLUhrhGmzlqj12-KXZk-132">
          <mxGeometry x="60" width="30" height="20" as="geometry" />
        </mxCell>
        <mxCell id="fuLUhrhGmzlqj12-KXZk-136" value="" style="rounded=0;whiteSpace=wrap;html=1;container=0;" vertex="1" parent="fuLUhrhGmzlqj12-KXZk-132">
          <mxGeometry x="90" width="30" height="20" as="geometry" />
        </mxCell>
        <mxCell id="fuLUhrhGmzlqj12-KXZk-137" value="" style="group" vertex="1" connectable="0" parent="fuLUhrhGmzlqj12-KXZk-131">
          <mxGeometry x="10" y="10" width="120" height="20" as="geometry" />
        </mxCell>
        <mxCell id="fuLUhrhGmzlqj12-KXZk-138" value="" style="rounded=0;whiteSpace=wrap;html=1;fillColor=#f5f5f5;strokeColor=#666666;fontColor=#333333;container=0;" vertex="1" parent="fuLUhrhGmzlqj12-KXZk-137">
          <mxGeometry width="30" height="20" as="geometry" />
        </mxCell>
        <mxCell id="fuLUhrhGmzlqj12-KXZk-139" value="" style="rounded=0;whiteSpace=wrap;html=1;container=0;" vertex="1" parent="fuLUhrhGmzlqj12-KXZk-137">
          <mxGeometry x="30" width="30" height="20" as="geometry" />
        </mxCell>
        <mxCell id="fuLUhrhGmzlqj12-KXZk-140" value="" style="rounded=0;whiteSpace=wrap;html=1;fillColor=#f5f5f5;strokeColor=#666666;fontColor=#333333;container=0;" vertex="1" parent="fuLUhrhGmzlqj12-KXZk-137">
          <mxGeometry x="60" width="30" height="20" as="geometry" />
        </mxCell>
        <mxCell id="fuLUhrhGmzlqj12-KXZk-141" value="" style="rounded=0;whiteSpace=wrap;html=1;container=0;" vertex="1" parent="fuLUhrhGmzlqj12-KXZk-137">
          <mxGeometry x="90" width="30" height="20" as="geometry" />
        </mxCell>
        <mxCell id="fuLUhrhGmzlqj12-KXZk-142" value="" style="group;fillColor=#dae8fc;strokeColor=#6c8ebf;" vertex="1" connectable="0" parent="fuLUhrhGmzlqj12-KXZk-131">
          <mxGeometry x="20" y="20" width="120" height="20" as="geometry" />
        </mxCell>
        <mxCell id="fuLUhrhGmzlqj12-KXZk-143" value="" style="rounded=0;whiteSpace=wrap;html=1;fillColor=#f5f5f5;strokeColor=#666666;fontColor=#333333;container=0;" vertex="1" parent="fuLUhrhGmzlqj12-KXZk-142">
          <mxGeometry width="30" height="20" as="geometry" />
        </mxCell>
        <mxCell id="fuLUhrhGmzlqj12-KXZk-144" value="" style="rounded=0;whiteSpace=wrap;html=1;container=0;" vertex="1" parent="fuLUhrhGmzlqj12-KXZk-142">
          <mxGeometry x="30" width="30" height="20" as="geometry" />
        </mxCell>
        <mxCell id="fuLUhrhGmzlqj12-KXZk-145" value="" style="rounded=0;whiteSpace=wrap;html=1;fillColor=#dae8fc;strokeColor=#6c8ebf;container=0;" vertex="1" parent="fuLUhrhGmzlqj12-KXZk-142">
          <mxGeometry x="60" width="30" height="20" as="geometry" />
        </mxCell>
        <mxCell id="fuLUhrhGmzlqj12-KXZk-146" value="" style="rounded=0;whiteSpace=wrap;html=1;container=0;" vertex="1" parent="fuLUhrhGmzlqj12-KXZk-142">
          <mxGeometry x="90" width="30" height="20" as="geometry" />
        </mxCell>
        <mxCell id="fuLUhrhGmzlqj12-KXZk-149" value="" style="group" vertex="1" connectable="0" parent="1">
          <mxGeometry x="603" y="992.5" width="120" height="20" as="geometry" />
        </mxCell>
        <mxCell id="fuLUhrhGmzlqj12-KXZk-150" value="" style="rounded=0;whiteSpace=wrap;html=1;fillColor=#f5f5f5;strokeColor=#666666;fontColor=#333333;container=0;" vertex="1" parent="fuLUhrhGmzlqj12-KXZk-149">
          <mxGeometry width="30" height="20" as="geometry" />
        </mxCell>
        <mxCell id="fuLUhrhGmzlqj12-KXZk-151" value="" style="rounded=0;whiteSpace=wrap;html=1;container=0;" vertex="1" parent="fuLUhrhGmzlqj12-KXZk-149">
          <mxGeometry x="30" width="30" height="20" as="geometry" />
        </mxCell>
        <mxCell id="fuLUhrhGmzlqj12-KXZk-152" value="" style="rounded=0;whiteSpace=wrap;html=1;fillColor=#f5f5f5;strokeColor=#666666;fontColor=#333333;container=0;" vertex="1" parent="fuLUhrhGmzlqj12-KXZk-149">
          <mxGeometry x="60" width="30" height="20" as="geometry" />
        </mxCell>
        <mxCell id="fuLUhrhGmzlqj12-KXZk-153" value="" style="rounded=0;whiteSpace=wrap;html=1;container=0;" vertex="1" parent="fuLUhrhGmzlqj12-KXZk-149">
          <mxGeometry x="90" width="30" height="20" as="geometry" />
        </mxCell>
        <mxCell id="fuLUhrhGmzlqj12-KXZk-164" value="Dense 特征" style="text;html=1;align=center;verticalAlign=middle;resizable=0;points=[];autosize=1;strokeColor=none;fillColor=none;" vertex="1" parent="1">
          <mxGeometry x="800" y="987.5" width="90" height="30" as="geometry" />
        </mxCell>
        <mxCell id="fuLUhrhGmzlqj12-KXZk-218" value="Concat Layer" style="text;html=1;align=center;verticalAlign=middle;resizable=0;points=[];autosize=1;strokeColor=none;fillColor=none;fontSize=16;" vertex="1" parent="1">
          <mxGeometry x="-311" y="843" width="120" height="30" as="geometry" />
        </mxCell>
        <mxCell id="fuLUhrhGmzlqj12-KXZk-220" value="" style="group" vertex="1" connectable="0" parent="1">
          <mxGeometry x="-145" y="833" width="890" height="50" as="geometry" />
        </mxCell>
        <mxCell id="fuLUhrhGmzlqj12-KXZk-211" value="" style="rounded=1;whiteSpace=wrap;html=1;" vertex="1" parent="fuLUhrhGmzlqj12-KXZk-220">
          <mxGeometry width="890" height="50" as="geometry" />
        </mxCell>
        <mxCell id="fuLUhrhGmzlqj12-KXZk-170" value="" style="group" vertex="1" connectable="0" parent="fuLUhrhGmzlqj12-KXZk-220">
          <mxGeometry x="19" y="17" width="120" height="20" as="geometry" />
        </mxCell>
        <mxCell id="fuLUhrhGmzlqj12-KXZk-166" value="" style="rounded=0;whiteSpace=wrap;html=1;fillColor=#f5f5f5;strokeColor=#666666;fontColor=#333333;container=0;" vertex="1" parent="fuLUhrhGmzlqj12-KXZk-170">
          <mxGeometry width="30" height="20" as="geometry" />
        </mxCell>
        <mxCell id="fuLUhrhGmzlqj12-KXZk-167" value="" style="rounded=0;whiteSpace=wrap;html=1;container=0;" vertex="1" parent="fuLUhrhGmzlqj12-KXZk-170">
          <mxGeometry x="30" width="30" height="20" as="geometry" />
        </mxCell>
        <mxCell id="fuLUhrhGmzlqj12-KXZk-168" value="" style="rounded=0;whiteSpace=wrap;html=1;fillColor=#dae8fc;strokeColor=#6c8ebf;container=0;" vertex="1" parent="fuLUhrhGmzlqj12-KXZk-170">
          <mxGeometry x="60" width="30" height="20" as="geometry" />
        </mxCell>
        <mxCell id="fuLUhrhGmzlqj12-KXZk-169" value="" style="rounded=0;whiteSpace=wrap;html=1;container=0;" vertex="1" parent="fuLUhrhGmzlqj12-KXZk-170">
          <mxGeometry x="90" width="30" height="20" as="geometry" />
        </mxCell>
        <mxCell id="fuLUhrhGmzlqj12-KXZk-181" value="" style="group" vertex="1" connectable="0" parent="fuLUhrhGmzlqj12-KXZk-220">
          <mxGeometry x="141" y="17" width="120" height="20" as="geometry" />
        </mxCell>
        <mxCell id="fuLUhrhGmzlqj12-KXZk-182" value="" style="rounded=0;whiteSpace=wrap;html=1;fillColor=#f5f5f5;strokeColor=#666666;fontColor=#333333;container=0;" vertex="1" parent="fuLUhrhGmzlqj12-KXZk-181">
          <mxGeometry width="30" height="20" as="geometry" />
        </mxCell>
        <mxCell id="fuLUhrhGmzlqj12-KXZk-183" value="" style="rounded=0;whiteSpace=wrap;html=1;container=0;" vertex="1" parent="fuLUhrhGmzlqj12-KXZk-181">
          <mxGeometry x="30" width="30" height="20" as="geometry" />
        </mxCell>
        <mxCell id="fuLUhrhGmzlqj12-KXZk-184" value="" style="rounded=0;whiteSpace=wrap;html=1;fillColor=#ffe6cc;strokeColor=#d79b00;container=0;" vertex="1" parent="fuLUhrhGmzlqj12-KXZk-181">
          <mxGeometry x="60" width="30" height="20" as="geometry" />
        </mxCell>
        <mxCell id="fuLUhrhGmzlqj12-KXZk-185" value="" style="rounded=0;whiteSpace=wrap;html=1;container=0;" vertex="1" parent="fuLUhrhGmzlqj12-KXZk-181">
          <mxGeometry x="90" width="30" height="20" as="geometry" />
        </mxCell>
        <mxCell id="fuLUhrhGmzlqj12-KXZk-186" value="" style="group" vertex="1" connectable="0" parent="fuLUhrhGmzlqj12-KXZk-220">
          <mxGeometry x="261" y="17" width="120" height="20" as="geometry" />
        </mxCell>
        <mxCell id="fuLUhrhGmzlqj12-KXZk-187" value="" style="rounded=0;whiteSpace=wrap;html=1;fillColor=#f5f5f5;strokeColor=#666666;fontColor=#333333;container=0;" vertex="1" parent="fuLUhrhGmzlqj12-KXZk-186">
          <mxGeometry width="30" height="20" as="geometry" />
        </mxCell>
        <mxCell id="fuLUhrhGmzlqj12-KXZk-188" value="" style="rounded=0;whiteSpace=wrap;html=1;container=0;" vertex="1" parent="fuLUhrhGmzlqj12-KXZk-186">
          <mxGeometry x="30" width="30" height="20" as="geometry" />
        </mxCell>
        <mxCell id="fuLUhrhGmzlqj12-KXZk-189" value="" style="rounded=0;whiteSpace=wrap;html=1;fillColor=#e1d5e7;strokeColor=#9673a6;container=0;" vertex="1" parent="fuLUhrhGmzlqj12-KXZk-186">
          <mxGeometry x="60" width="30" height="20" as="geometry" />
        </mxCell>
        <mxCell id="fuLUhrhGmzlqj12-KXZk-190" value="" style="rounded=0;whiteSpace=wrap;html=1;container=0;" vertex="1" parent="fuLUhrhGmzlqj12-KXZk-186">
          <mxGeometry x="90" width="30" height="20" as="geometry" />
        </mxCell>
        <mxCell id="fuLUhrhGmzlqj12-KXZk-191" value="" style="group" vertex="1" connectable="0" parent="fuLUhrhGmzlqj12-KXZk-220">
          <mxGeometry x="381" y="17" width="120" height="20" as="geometry" />
        </mxCell>
        <mxCell id="fuLUhrhGmzlqj12-KXZk-192" value="" style="rounded=0;whiteSpace=wrap;html=1;fillColor=#f5f5f5;strokeColor=#666666;fontColor=#333333;container=0;" vertex="1" parent="fuLUhrhGmzlqj12-KXZk-191">
          <mxGeometry width="30" height="20" as="geometry" />
        </mxCell>
        <mxCell id="fuLUhrhGmzlqj12-KXZk-193" value="" style="rounded=0;whiteSpace=wrap;html=1;container=0;" vertex="1" parent="fuLUhrhGmzlqj12-KXZk-191">
          <mxGeometry x="30" width="30" height="20" as="geometry" />
        </mxCell>
        <mxCell id="fuLUhrhGmzlqj12-KXZk-194" value="" style="rounded=0;whiteSpace=wrap;html=1;fillColor=#f5f5f5;strokeColor=#666666;fontColor=#333333;container=0;" vertex="1" parent="fuLUhrhGmzlqj12-KXZk-191">
          <mxGeometry x="60" width="30" height="20" as="geometry" />
        </mxCell>
        <mxCell id="fuLUhrhGmzlqj12-KXZk-195" value="" style="rounded=0;whiteSpace=wrap;html=1;container=0;" vertex="1" parent="fuLUhrhGmzlqj12-KXZk-191">
          <mxGeometry x="90" width="30" height="20" as="geometry" />
        </mxCell>
        <mxCell id="fuLUhrhGmzlqj12-KXZk-196" value="" style="group" vertex="1" connectable="0" parent="fuLUhrhGmzlqj12-KXZk-220">
          <mxGeometry x="501" y="17" width="120" height="20" as="geometry" />
        </mxCell>
        <mxCell id="fuLUhrhGmzlqj12-KXZk-197" value="" style="rounded=0;whiteSpace=wrap;html=1;fillColor=#f5f5f5;strokeColor=#666666;fontColor=#333333;container=0;" vertex="1" parent="fuLUhrhGmzlqj12-KXZk-196">
          <mxGeometry width="30" height="20" as="geometry" />
        </mxCell>
        <mxCell id="fuLUhrhGmzlqj12-KXZk-198" value="" style="rounded=0;whiteSpace=wrap;html=1;container=0;" vertex="1" parent="fuLUhrhGmzlqj12-KXZk-196">
          <mxGeometry x="30" width="30" height="20" as="geometry" />
        </mxCell>
        <mxCell id="fuLUhrhGmzlqj12-KXZk-199" value="" style="rounded=0;whiteSpace=wrap;html=1;fillColor=#d5e8d4;strokeColor=#82b366;container=0;" vertex="1" parent="fuLUhrhGmzlqj12-KXZk-196">
          <mxGeometry x="60" width="30" height="20" as="geometry" />
        </mxCell>
        <mxCell id="fuLUhrhGmzlqj12-KXZk-200" value="" style="rounded=0;whiteSpace=wrap;html=1;container=0;" vertex="1" parent="fuLUhrhGmzlqj12-KXZk-196">
          <mxGeometry x="90" width="30" height="20" as="geometry" />
        </mxCell>
        <mxCell id="fuLUhrhGmzlqj12-KXZk-201" value="" style="group" vertex="1" connectable="0" parent="fuLUhrhGmzlqj12-KXZk-220">
          <mxGeometry x="621" y="17" width="120" height="20" as="geometry" />
        </mxCell>
        <mxCell id="fuLUhrhGmzlqj12-KXZk-202" value="" style="rounded=0;whiteSpace=wrap;html=1;fillColor=#f5f5f5;strokeColor=#666666;fontColor=#333333;container=0;" vertex="1" parent="fuLUhrhGmzlqj12-KXZk-201">
          <mxGeometry width="30" height="20" as="geometry" />
        </mxCell>
        <mxCell id="fuLUhrhGmzlqj12-KXZk-203" value="" style="rounded=0;whiteSpace=wrap;html=1;container=0;" vertex="1" parent="fuLUhrhGmzlqj12-KXZk-201">
          <mxGeometry x="30" width="30" height="20" as="geometry" />
        </mxCell>
        <mxCell id="fuLUhrhGmzlqj12-KXZk-204" value="" style="rounded=0;whiteSpace=wrap;html=1;fillColor=#f5f5f5;strokeColor=#666666;fontColor=#333333;container=0;" vertex="1" parent="fuLUhrhGmzlqj12-KXZk-201">
          <mxGeometry x="60" width="30" height="20" as="geometry" />
        </mxCell>
        <mxCell id="fuLUhrhGmzlqj12-KXZk-205" value="" style="rounded=0;whiteSpace=wrap;html=1;container=0;" vertex="1" parent="fuLUhrhGmzlqj12-KXZk-201">
          <mxGeometry x="90" width="30" height="20" as="geometry" />
        </mxCell>
        <mxCell id="fuLUhrhGmzlqj12-KXZk-212" value="" style="group" vertex="1" connectable="0" parent="fuLUhrhGmzlqj12-KXZk-220">
          <mxGeometry x="741" y="17" width="120" height="20" as="geometry" />
        </mxCell>
        <mxCell id="fuLUhrhGmzlqj12-KXZk-213" value="" style="rounded=0;whiteSpace=wrap;html=1;fillColor=#f5f5f5;strokeColor=#666666;fontColor=#333333;container=0;" vertex="1" parent="fuLUhrhGmzlqj12-KXZk-212">
          <mxGeometry width="30" height="20" as="geometry" />
        </mxCell>
        <mxCell id="fuLUhrhGmzlqj12-KXZk-214" value="" style="rounded=0;whiteSpace=wrap;html=1;container=0;" vertex="1" parent="fuLUhrhGmzlqj12-KXZk-212">
          <mxGeometry x="30" width="30" height="20" as="geometry" />
        </mxCell>
        <mxCell id="fuLUhrhGmzlqj12-KXZk-215" value="" style="rounded=0;whiteSpace=wrap;html=1;fillColor=#f5f5f5;strokeColor=#666666;fontColor=#333333;container=0;" vertex="1" parent="fuLUhrhGmzlqj12-KXZk-212">
          <mxGeometry x="60" width="30" height="20" as="geometry" />
        </mxCell>
        <mxCell id="fuLUhrhGmzlqj12-KXZk-216" value="" style="rounded=0;whiteSpace=wrap;html=1;container=0;" vertex="1" parent="fuLUhrhGmzlqj12-KXZk-212">
          <mxGeometry x="90" width="30" height="20" as="geometry" />
        </mxCell>
        <mxCell id="fuLUhrhGmzlqj12-KXZk-221" value="" style="group" vertex="1" connectable="0" parent="1">
          <mxGeometry x="-146" y="714" width="890" height="50" as="geometry" />
        </mxCell>
        <mxCell id="fuLUhrhGmzlqj12-KXZk-222" value="" style="rounded=1;whiteSpace=wrap;html=1;" vertex="1" parent="fuLUhrhGmzlqj12-KXZk-221">
          <mxGeometry width="890" height="50" as="geometry" />
        </mxCell>
        <mxCell id="fuLUhrhGmzlqj12-KXZk-223" value="" style="group" vertex="1" connectable="0" parent="fuLUhrhGmzlqj12-KXZk-221">
          <mxGeometry x="19" y="17" width="120" height="20" as="geometry" />
        </mxCell>
        <mxCell id="fuLUhrhGmzlqj12-KXZk-224" value="" style="rounded=0;whiteSpace=wrap;html=1;fillColor=#f5f5f5;strokeColor=#666666;fontColor=#333333;container=0;" vertex="1" parent="fuLUhrhGmzlqj12-KXZk-223">
          <mxGeometry width="30" height="20" as="geometry" />
        </mxCell>
        <mxCell id="fuLUhrhGmzlqj12-KXZk-225" value="" style="rounded=0;whiteSpace=wrap;html=1;container=0;" vertex="1" parent="fuLUhrhGmzlqj12-KXZk-223">
          <mxGeometry x="30" width="30" height="20" as="geometry" />
        </mxCell>
        <mxCell id="fuLUhrhGmzlqj12-KXZk-226" value="" style="rounded=0;whiteSpace=wrap;html=1;fillColor=#dae8fc;strokeColor=#6c8ebf;container=0;" vertex="1" parent="fuLUhrhGmzlqj12-KXZk-223">
          <mxGeometry x="60" width="30" height="20" as="geometry" />
        </mxCell>
        <mxCell id="fuLUhrhGmzlqj12-KXZk-227" value="" style="rounded=0;whiteSpace=wrap;html=1;container=0;" vertex="1" parent="fuLUhrhGmzlqj12-KXZk-223">
          <mxGeometry x="90" width="30" height="20" as="geometry" />
        </mxCell>
        <mxCell id="fuLUhrhGmzlqj12-KXZk-228" value="" style="group" vertex="1" connectable="0" parent="fuLUhrhGmzlqj12-KXZk-221">
          <mxGeometry x="141" y="17" width="120" height="20" as="geometry" />
        </mxCell>
        <mxCell id="fuLUhrhGmzlqj12-KXZk-229" value="" style="rounded=0;whiteSpace=wrap;html=1;fillColor=#f5f5f5;strokeColor=#666666;fontColor=#333333;container=0;" vertex="1" parent="fuLUhrhGmzlqj12-KXZk-228">
          <mxGeometry width="30" height="20" as="geometry" />
        </mxCell>
        <mxCell id="fuLUhrhGmzlqj12-KXZk-230" value="" style="rounded=0;whiteSpace=wrap;html=1;container=0;" vertex="1" parent="fuLUhrhGmzlqj12-KXZk-228">
          <mxGeometry x="30" width="30" height="20" as="geometry" />
        </mxCell>
        <mxCell id="fuLUhrhGmzlqj12-KXZk-231" value="" style="rounded=0;whiteSpace=wrap;html=1;fillColor=#ffe6cc;strokeColor=#d79b00;container=0;" vertex="1" parent="fuLUhrhGmzlqj12-KXZk-228">
          <mxGeometry x="60" width="30" height="20" as="geometry" />
        </mxCell>
        <mxCell id="fuLUhrhGmzlqj12-KXZk-232" value="" style="rounded=0;whiteSpace=wrap;html=1;container=0;" vertex="1" parent="fuLUhrhGmzlqj12-KXZk-228">
          <mxGeometry x="90" width="30" height="20" as="geometry" />
        </mxCell>
        <mxCell id="fuLUhrhGmzlqj12-KXZk-233" value="" style="group" vertex="1" connectable="0" parent="fuLUhrhGmzlqj12-KXZk-221">
          <mxGeometry x="261" y="17" width="120" height="20" as="geometry" />
        </mxCell>
        <mxCell id="fuLUhrhGmzlqj12-KXZk-234" value="" style="rounded=0;whiteSpace=wrap;html=1;fillColor=#f5f5f5;strokeColor=#666666;fontColor=#333333;container=0;" vertex="1" parent="fuLUhrhGmzlqj12-KXZk-233">
          <mxGeometry width="30" height="20" as="geometry" />
        </mxCell>
        <mxCell id="fuLUhrhGmzlqj12-KXZk-235" value="" style="rounded=0;whiteSpace=wrap;html=1;container=0;" vertex="1" parent="fuLUhrhGmzlqj12-KXZk-233">
          <mxGeometry x="30" width="30" height="20" as="geometry" />
        </mxCell>
        <mxCell id="fuLUhrhGmzlqj12-KXZk-236" value="" style="rounded=0;whiteSpace=wrap;html=1;fillColor=#e1d5e7;strokeColor=#9673a6;container=0;" vertex="1" parent="fuLUhrhGmzlqj12-KXZk-233">
          <mxGeometry x="60" width="30" height="20" as="geometry" />
        </mxCell>
        <mxCell id="fuLUhrhGmzlqj12-KXZk-237" value="" style="rounded=0;whiteSpace=wrap;html=1;container=0;" vertex="1" parent="fuLUhrhGmzlqj12-KXZk-233">
          <mxGeometry x="90" width="30" height="20" as="geometry" />
        </mxCell>
        <mxCell id="fuLUhrhGmzlqj12-KXZk-238" value="" style="group" vertex="1" connectable="0" parent="fuLUhrhGmzlqj12-KXZk-221">
          <mxGeometry x="381" y="17" width="120" height="20" as="geometry" />
        </mxCell>
        <mxCell id="fuLUhrhGmzlqj12-KXZk-239" value="" style="rounded=0;whiteSpace=wrap;html=1;fillColor=#f5f5f5;strokeColor=#666666;fontColor=#333333;container=0;" vertex="1" parent="fuLUhrhGmzlqj12-KXZk-238">
          <mxGeometry width="30" height="20" as="geometry" />
        </mxCell>
        <mxCell id="fuLUhrhGmzlqj12-KXZk-240" value="" style="rounded=0;whiteSpace=wrap;html=1;container=0;" vertex="1" parent="fuLUhrhGmzlqj12-KXZk-238">
          <mxGeometry x="30" width="30" height="20" as="geometry" />
        </mxCell>
        <mxCell id="fuLUhrhGmzlqj12-KXZk-241" value="" style="rounded=0;whiteSpace=wrap;html=1;fillColor=#f5f5f5;strokeColor=#666666;fontColor=#333333;container=0;" vertex="1" parent="fuLUhrhGmzlqj12-KXZk-238">
          <mxGeometry x="60" width="30" height="20" as="geometry" />
        </mxCell>
        <mxCell id="fuLUhrhGmzlqj12-KXZk-242" value="" style="rounded=0;whiteSpace=wrap;html=1;container=0;" vertex="1" parent="fuLUhrhGmzlqj12-KXZk-238">
          <mxGeometry x="90" width="30" height="20" as="geometry" />
        </mxCell>
        <mxCell id="fuLUhrhGmzlqj12-KXZk-243" value="" style="group" vertex="1" connectable="0" parent="fuLUhrhGmzlqj12-KXZk-221">
          <mxGeometry x="501" y="17" width="120" height="20" as="geometry" />
        </mxCell>
        <mxCell id="fuLUhrhGmzlqj12-KXZk-244" value="" style="rounded=0;whiteSpace=wrap;html=1;fillColor=#f5f5f5;strokeColor=#666666;fontColor=#333333;container=0;" vertex="1" parent="fuLUhrhGmzlqj12-KXZk-243">
          <mxGeometry width="30" height="20" as="geometry" />
        </mxCell>
        <mxCell id="fuLUhrhGmzlqj12-KXZk-245" value="" style="rounded=0;whiteSpace=wrap;html=1;container=0;" vertex="1" parent="fuLUhrhGmzlqj12-KXZk-243">
          <mxGeometry x="30" width="30" height="20" as="geometry" />
        </mxCell>
        <mxCell id="fuLUhrhGmzlqj12-KXZk-246" value="" style="rounded=0;whiteSpace=wrap;html=1;fillColor=#d5e8d4;strokeColor=#82b366;container=0;" vertex="1" parent="fuLUhrhGmzlqj12-KXZk-243">
          <mxGeometry x="60" width="30" height="20" as="geometry" />
        </mxCell>
        <mxCell id="fuLUhrhGmzlqj12-KXZk-247" value="" style="rounded=0;whiteSpace=wrap;html=1;container=0;" vertex="1" parent="fuLUhrhGmzlqj12-KXZk-243">
          <mxGeometry x="90" width="30" height="20" as="geometry" />
        </mxCell>
        <mxCell id="fuLUhrhGmzlqj12-KXZk-248" value="" style="group" vertex="1" connectable="0" parent="fuLUhrhGmzlqj12-KXZk-221">
          <mxGeometry x="621" y="17" width="120" height="20" as="geometry" />
        </mxCell>
        <mxCell id="fuLUhrhGmzlqj12-KXZk-249" value="" style="rounded=0;whiteSpace=wrap;html=1;fillColor=#f5f5f5;strokeColor=#666666;fontColor=#333333;container=0;" vertex="1" parent="fuLUhrhGmzlqj12-KXZk-248">
          <mxGeometry width="30" height="20" as="geometry" />
        </mxCell>
        <mxCell id="fuLUhrhGmzlqj12-KXZk-250" value="" style="rounded=0;whiteSpace=wrap;html=1;container=0;" vertex="1" parent="fuLUhrhGmzlqj12-KXZk-248">
          <mxGeometry x="30" width="30" height="20" as="geometry" />
        </mxCell>
        <mxCell id="fuLUhrhGmzlqj12-KXZk-251" value="" style="rounded=0;whiteSpace=wrap;html=1;fillColor=#f5f5f5;strokeColor=#666666;fontColor=#333333;container=0;" vertex="1" parent="fuLUhrhGmzlqj12-KXZk-248">
          <mxGeometry x="60" width="30" height="20" as="geometry" />
        </mxCell>
        <mxCell id="fuLUhrhGmzlqj12-KXZk-252" value="" style="rounded=0;whiteSpace=wrap;html=1;container=0;" vertex="1" parent="fuLUhrhGmzlqj12-KXZk-248">
          <mxGeometry x="90" width="30" height="20" as="geometry" />
        </mxCell>
        <mxCell id="fuLUhrhGmzlqj12-KXZk-253" value="" style="group" vertex="1" connectable="0" parent="fuLUhrhGmzlqj12-KXZk-221">
          <mxGeometry x="741" y="17" width="120" height="20" as="geometry" />
        </mxCell>
        <mxCell id="fuLUhrhGmzlqj12-KXZk-254" value="" style="rounded=0;whiteSpace=wrap;html=1;fillColor=#f5f5f5;strokeColor=#666666;fontColor=#333333;container=0;" vertex="1" parent="fuLUhrhGmzlqj12-KXZk-253">
          <mxGeometry width="30" height="20" as="geometry" />
        </mxCell>
        <mxCell id="fuLUhrhGmzlqj12-KXZk-255" value="" style="rounded=0;whiteSpace=wrap;html=1;container=0;" vertex="1" parent="fuLUhrhGmzlqj12-KXZk-253">
          <mxGeometry x="30" width="30" height="20" as="geometry" />
        </mxCell>
        <mxCell id="fuLUhrhGmzlqj12-KXZk-256" value="" style="rounded=0;whiteSpace=wrap;html=1;fillColor=#f5f5f5;strokeColor=#666666;fontColor=#333333;container=0;" vertex="1" parent="fuLUhrhGmzlqj12-KXZk-253">
          <mxGeometry x="60" width="30" height="20" as="geometry" />
        </mxCell>
        <mxCell id="fuLUhrhGmzlqj12-KXZk-257" value="" style="rounded=0;whiteSpace=wrap;html=1;container=0;" vertex="1" parent="fuLUhrhGmzlqj12-KXZk-253">
          <mxGeometry x="90" width="30" height="20" as="geometry" />
        </mxCell>
        <mxCell id="fuLUhrhGmzlqj12-KXZk-258" value="" style="endArrow=classic;html=1;rounded=0;dashed=1;dashPattern=1 1;fontSize=16;endSize=3;entryX=0.5;entryY=1;entryDx=0;entryDy=0;" edge="1" parent="1" target="fuLUhrhGmzlqj12-KXZk-222">
          <mxGeometry width="50" height="50" relative="1" as="geometry">
            <mxPoint x="299" y="790" as="sourcePoint" />
            <mxPoint x="300" y="810" as="targetPoint" />
          </mxGeometry>
        </mxCell>
        <mxCell id="fuLUhrhGmzlqj12-KXZk-259" value="X" style="ellipse;whiteSpace=wrap;html=1;aspect=fixed;fontSize=16;" vertex="1" parent="1">
          <mxGeometry x="289" y="790" width="20" height="20" as="geometry" />
        </mxCell>
        <mxCell id="fuLUhrhGmzlqj12-KXZk-261" value="" style="endArrow=none;html=1;rounded=0;dashed=1;dashPattern=1 1;fontSize=16;endSize=3;exitX=0.5;exitY=0;exitDx=0;exitDy=0;" edge="1" parent="1" source="fuLUhrhGmzlqj12-KXZk-211">
          <mxGeometry width="50" height="50" relative="1" as="geometry">
            <mxPoint x="270" y="690" as="sourcePoint" />
            <mxPoint x="300" y="810" as="targetPoint" />
          </mxGeometry>
        </mxCell>
        <mxCell id="fuLUhrhGmzlqj12-KXZk-262" value="" style="endArrow=none;html=1;rounded=0;fontSize=16;endSize=3;entryX=0;entryY=0.5;entryDx=0;entryDy=0;exitX=0.021;exitY=0.706;exitDx=0;exitDy=0;exitPerimeter=0;" edge="1" parent="1" source="fuLUhrhGmzlqj12-KXZk-302" target="fuLUhrhGmzlqj12-KXZk-259">
          <mxGeometry width="50" height="50" relative="1" as="geometry">
            <mxPoint x="-160" y="690" as="sourcePoint" />
            <mxPoint x="320" y="640" as="targetPoint" />
            <Array as="points">
              <mxPoint x="-160" y="696" />
              <mxPoint x="-160" y="858" />
              <mxPoint x="-160" y="800" />
            </Array>
          </mxGeometry>
        </mxCell>
        <mxCell id="fuLUhrhGmzlqj12-KXZk-263" value="" style="group" vertex="1" connectable="0" parent="1">
          <mxGeometry x="-146" y="620" width="890" height="50" as="geometry" />
        </mxCell>
        <mxCell id="fuLUhrhGmzlqj12-KXZk-264" value="" style="rounded=1;whiteSpace=wrap;html=1;" vertex="1" parent="fuLUhrhGmzlqj12-KXZk-263">
          <mxGeometry width="890" height="50" as="geometry" />
        </mxCell>
        <mxCell id="fuLUhrhGmzlqj12-KXZk-265" value="" style="group" vertex="1" connectable="0" parent="fuLUhrhGmzlqj12-KXZk-263">
          <mxGeometry x="19" y="17" width="120" height="20" as="geometry" />
        </mxCell>
        <mxCell id="fuLUhrhGmzlqj12-KXZk-266" value="" style="rounded=0;whiteSpace=wrap;html=1;fillColor=#f5f5f5;strokeColor=#666666;fontColor=#333333;container=0;" vertex="1" parent="fuLUhrhGmzlqj12-KXZk-265">
          <mxGeometry width="30" height="20" as="geometry" />
        </mxCell>
        <mxCell id="fuLUhrhGmzlqj12-KXZk-267" value="" style="rounded=0;whiteSpace=wrap;html=1;container=0;" vertex="1" parent="fuLUhrhGmzlqj12-KXZk-265">
          <mxGeometry x="30" width="30" height="20" as="geometry" />
        </mxCell>
        <mxCell id="fuLUhrhGmzlqj12-KXZk-268" value="" style="rounded=0;whiteSpace=wrap;html=1;fillColor=#e1d5e7;strokeColor=#9673a6;container=0;" vertex="1" parent="fuLUhrhGmzlqj12-KXZk-265">
          <mxGeometry x="60" width="30" height="20" as="geometry" />
        </mxCell>
        <mxCell id="fuLUhrhGmzlqj12-KXZk-269" value="" style="rounded=0;whiteSpace=wrap;html=1;container=0;" vertex="1" parent="fuLUhrhGmzlqj12-KXZk-265">
          <mxGeometry x="90" width="30" height="20" as="geometry" />
        </mxCell>
        <mxCell id="fuLUhrhGmzlqj12-KXZk-270" value="" style="group" vertex="1" connectable="0" parent="fuLUhrhGmzlqj12-KXZk-263">
          <mxGeometry x="141" y="17" width="120" height="20" as="geometry" />
        </mxCell>
        <mxCell id="fuLUhrhGmzlqj12-KXZk-271" value="" style="rounded=0;whiteSpace=wrap;html=1;fillColor=#f5f5f5;strokeColor=#666666;fontColor=#333333;container=0;" vertex="1" parent="fuLUhrhGmzlqj12-KXZk-270">
          <mxGeometry width="30" height="20" as="geometry" />
        </mxCell>
        <mxCell id="fuLUhrhGmzlqj12-KXZk-272" value="" style="rounded=0;whiteSpace=wrap;html=1;container=0;" vertex="1" parent="fuLUhrhGmzlqj12-KXZk-270">
          <mxGeometry x="30" width="30" height="20" as="geometry" />
        </mxCell>
        <mxCell id="fuLUhrhGmzlqj12-KXZk-273" value="" style="rounded=0;whiteSpace=wrap;html=1;fillColor=#ffe6cc;strokeColor=#d79b00;container=0;" vertex="1" parent="fuLUhrhGmzlqj12-KXZk-270">
          <mxGeometry x="60" width="30" height="20" as="geometry" />
        </mxCell>
        <mxCell id="fuLUhrhGmzlqj12-KXZk-274" value="" style="rounded=0;whiteSpace=wrap;html=1;container=0;" vertex="1" parent="fuLUhrhGmzlqj12-KXZk-270">
          <mxGeometry x="90" width="30" height="20" as="geometry" />
        </mxCell>
        <mxCell id="fuLUhrhGmzlqj12-KXZk-275" value="" style="group" vertex="1" connectable="0" parent="fuLUhrhGmzlqj12-KXZk-263">
          <mxGeometry x="261" y="17" width="120" height="20" as="geometry" />
        </mxCell>
        <mxCell id="fuLUhrhGmzlqj12-KXZk-276" value="" style="rounded=0;whiteSpace=wrap;html=1;fillColor=#f5f5f5;strokeColor=#666666;fontColor=#333333;container=0;" vertex="1" parent="fuLUhrhGmzlqj12-KXZk-275">
          <mxGeometry width="30" height="20" as="geometry" />
        </mxCell>
        <mxCell id="fuLUhrhGmzlqj12-KXZk-277" value="" style="rounded=0;whiteSpace=wrap;html=1;container=0;" vertex="1" parent="fuLUhrhGmzlqj12-KXZk-275">
          <mxGeometry x="30" width="30" height="20" as="geometry" />
        </mxCell>
        <mxCell id="fuLUhrhGmzlqj12-KXZk-278" value="" style="rounded=0;whiteSpace=wrap;html=1;fillColor=#fff2cc;strokeColor=#d6b656;container=0;" vertex="1" parent="fuLUhrhGmzlqj12-KXZk-275">
          <mxGeometry x="60" width="30" height="20" as="geometry" />
        </mxCell>
        <mxCell id="fuLUhrhGmzlqj12-KXZk-279" value="" style="rounded=0;whiteSpace=wrap;html=1;container=0;" vertex="1" parent="fuLUhrhGmzlqj12-KXZk-275">
          <mxGeometry x="90" width="30" height="20" as="geometry" />
        </mxCell>
        <mxCell id="fuLUhrhGmzlqj12-KXZk-280" value="" style="group" vertex="1" connectable="0" parent="fuLUhrhGmzlqj12-KXZk-263">
          <mxGeometry x="381" y="17" width="120" height="20" as="geometry" />
        </mxCell>
        <mxCell id="fuLUhrhGmzlqj12-KXZk-281" value="" style="rounded=0;whiteSpace=wrap;html=1;fillColor=#f5f5f5;strokeColor=#666666;fontColor=#333333;container=0;" vertex="1" parent="fuLUhrhGmzlqj12-KXZk-280">
          <mxGeometry width="30" height="20" as="geometry" />
        </mxCell>
        <mxCell id="fuLUhrhGmzlqj12-KXZk-282" value="" style="rounded=0;whiteSpace=wrap;html=1;container=0;" vertex="1" parent="fuLUhrhGmzlqj12-KXZk-280">
          <mxGeometry x="30" width="30" height="20" as="geometry" />
        </mxCell>
        <mxCell id="fuLUhrhGmzlqj12-KXZk-283" value="" style="rounded=0;whiteSpace=wrap;html=1;fillColor=#f5f5f5;strokeColor=#666666;fontColor=#333333;container=0;" vertex="1" parent="fuLUhrhGmzlqj12-KXZk-280">
          <mxGeometry x="60" width="30" height="20" as="geometry" />
        </mxCell>
        <mxCell id="fuLUhrhGmzlqj12-KXZk-284" value="" style="rounded=0;whiteSpace=wrap;html=1;container=0;" vertex="1" parent="fuLUhrhGmzlqj12-KXZk-280">
          <mxGeometry x="90" width="30" height="20" as="geometry" />
        </mxCell>
        <mxCell id="fuLUhrhGmzlqj12-KXZk-285" value="" style="group" vertex="1" connectable="0" parent="fuLUhrhGmzlqj12-KXZk-263">
          <mxGeometry x="501" y="17" width="120" height="20" as="geometry" />
        </mxCell>
        <mxCell id="fuLUhrhGmzlqj12-KXZk-286" value="" style="rounded=0;whiteSpace=wrap;html=1;fillColor=#f5f5f5;strokeColor=#666666;fontColor=#333333;container=0;" vertex="1" parent="fuLUhrhGmzlqj12-KXZk-285">
          <mxGeometry width="30" height="20" as="geometry" />
        </mxCell>
        <mxCell id="fuLUhrhGmzlqj12-KXZk-287" value="" style="rounded=0;whiteSpace=wrap;html=1;container=0;" vertex="1" parent="fuLUhrhGmzlqj12-KXZk-285">
          <mxGeometry x="30" width="30" height="20" as="geometry" />
        </mxCell>
        <mxCell id="fuLUhrhGmzlqj12-KXZk-288" value="" style="rounded=0;whiteSpace=wrap;html=1;fillColor=#f8cecc;strokeColor=#b85450;container=0;" vertex="1" parent="fuLUhrhGmzlqj12-KXZk-285">
          <mxGeometry x="60" width="30" height="20" as="geometry" />
        </mxCell>
        <mxCell id="fuLUhrhGmzlqj12-KXZk-289" value="" style="rounded=0;whiteSpace=wrap;html=1;container=0;" vertex="1" parent="fuLUhrhGmzlqj12-KXZk-285">
          <mxGeometry x="90" width="30" height="20" as="geometry" />
        </mxCell>
        <mxCell id="fuLUhrhGmzlqj12-KXZk-290" value="" style="group" vertex="1" connectable="0" parent="fuLUhrhGmzlqj12-KXZk-263">
          <mxGeometry x="621" y="17" width="120" height="20" as="geometry" />
        </mxCell>
        <mxCell id="fuLUhrhGmzlqj12-KXZk-291" value="" style="rounded=0;whiteSpace=wrap;html=1;fillColor=#f5f5f5;strokeColor=#666666;fontColor=#333333;container=0;" vertex="1" parent="fuLUhrhGmzlqj12-KXZk-290">
          <mxGeometry width="30" height="20" as="geometry" />
        </mxCell>
        <mxCell id="fuLUhrhGmzlqj12-KXZk-292" value="" style="rounded=0;whiteSpace=wrap;html=1;container=0;" vertex="1" parent="fuLUhrhGmzlqj12-KXZk-290">
          <mxGeometry x="30" width="30" height="20" as="geometry" />
        </mxCell>
        <mxCell id="fuLUhrhGmzlqj12-KXZk-293" value="" style="rounded=0;whiteSpace=wrap;html=1;fillColor=#f5f5f5;strokeColor=#666666;fontColor=#333333;container=0;" vertex="1" parent="fuLUhrhGmzlqj12-KXZk-290">
          <mxGeometry x="60" width="30" height="20" as="geometry" />
        </mxCell>
        <mxCell id="fuLUhrhGmzlqj12-KXZk-294" value="" style="rounded=0;whiteSpace=wrap;html=1;container=0;" vertex="1" parent="fuLUhrhGmzlqj12-KXZk-290">
          <mxGeometry x="90" width="30" height="20" as="geometry" />
        </mxCell>
        <mxCell id="fuLUhrhGmzlqj12-KXZk-295" value="" style="group" vertex="1" connectable="0" parent="fuLUhrhGmzlqj12-KXZk-263">
          <mxGeometry x="741" y="17" width="120" height="20" as="geometry" />
        </mxCell>
        <mxCell id="fuLUhrhGmzlqj12-KXZk-296" value="" style="rounded=0;whiteSpace=wrap;html=1;fillColor=#f5f5f5;strokeColor=#666666;fontColor=#333333;container=0;" vertex="1" parent="fuLUhrhGmzlqj12-KXZk-295">
          <mxGeometry width="30" height="20" as="geometry" />
        </mxCell>
        <mxCell id="fuLUhrhGmzlqj12-KXZk-297" value="" style="rounded=0;whiteSpace=wrap;html=1;container=0;" vertex="1" parent="fuLUhrhGmzlqj12-KXZk-295">
          <mxGeometry x="30" width="30" height="20" as="geometry" />
        </mxCell>
        <mxCell id="fuLUhrhGmzlqj12-KXZk-298" value="" style="rounded=0;whiteSpace=wrap;html=1;fillColor=#f5f5f5;strokeColor=#666666;fontColor=#333333;container=0;" vertex="1" parent="fuLUhrhGmzlqj12-KXZk-295">
          <mxGeometry x="60" width="30" height="20" as="geometry" />
        </mxCell>
        <mxCell id="fuLUhrhGmzlqj12-KXZk-299" value="" style="rounded=0;whiteSpace=wrap;html=1;container=0;" vertex="1" parent="fuLUhrhGmzlqj12-KXZk-295">
          <mxGeometry x="90" width="30" height="20" as="geometry" />
        </mxCell>
        <mxCell id="fuLUhrhGmzlqj12-KXZk-301" value="" style="endArrow=classic;html=1;rounded=0;dashed=1;dashPattern=1 1;fontSize=16;endSize=3;entryX=0.5;entryY=1;entryDx=0;entryDy=0;" edge="1" parent="1">
          <mxGeometry width="50" height="50" relative="1" as="geometry">
            <mxPoint x="300" y="690" as="sourcePoint" />
            <mxPoint x="299.58" y="670" as="targetPoint" />
          </mxGeometry>
        </mxCell>
        <mxCell id="fuLUhrhGmzlqj12-KXZk-302" value="..." style="text;html=1;align=center;verticalAlign=middle;resizable=0;points=[];autosize=1;strokeColor=none;fillColor=none;fontSize=16;" vertex="1" parent="1">
          <mxGeometry x="280" y="675" width="40" height="30" as="geometry" />
        </mxCell>
        <mxCell id="fuLUhrhGmzlqj12-KXZk-311" value="" style="endArrow=none;html=1;rounded=0;fontSize=16;endSize=3;entryX=0;entryY=0.5;entryDx=0;entryDy=0;" edge="1" parent="1" target="fuLUhrhGmzlqj12-KXZk-211">
          <mxGeometry width="50" height="50" relative="1" as="geometry">
            <mxPoint x="-160" y="858" as="sourcePoint" />
            <mxPoint x="130" y="790" as="targetPoint" />
          </mxGeometry>
        </mxCell>
        <mxCell id="fuLUhrhGmzlqj12-KXZk-312" value="Cross Network" style="text;html=1;align=center;verticalAlign=middle;resizable=0;points=[];autosize=1;strokeColor=none;fillColor=none;fontSize=16;" vertex="1" parent="1">
          <mxGeometry x="-311" y="675" width="130" height="30" as="geometry" />
        </mxCell>
        <mxCell id="fuLUhrhGmzlqj12-KXZk-350" value="" style="group" vertex="1" connectable="0" parent="1">
          <mxGeometry x="-20" y="540" width="510" height="50" as="geometry" />
        </mxCell>
        <mxCell id="fuLUhrhGmzlqj12-KXZk-314" value="" style="rounded=1;whiteSpace=wrap;html=1;" vertex="1" parent="fuLUhrhGmzlqj12-KXZk-350">
          <mxGeometry width="510" height="50" as="geometry" />
        </mxCell>
        <mxCell id="fuLUhrhGmzlqj12-KXZk-320" value="" style="group" vertex="1" connectable="0" parent="fuLUhrhGmzlqj12-KXZk-350">
          <mxGeometry x="16" y="17" width="120" height="20" as="geometry" />
        </mxCell>
        <mxCell id="fuLUhrhGmzlqj12-KXZk-321" value="" style="rounded=0;whiteSpace=wrap;html=1;fillColor=#f5f5f5;strokeColor=#666666;fontColor=#333333;container=0;" vertex="1" parent="fuLUhrhGmzlqj12-KXZk-320">
          <mxGeometry width="30" height="20" as="geometry" />
        </mxCell>
        <mxCell id="fuLUhrhGmzlqj12-KXZk-322" value="" style="rounded=0;whiteSpace=wrap;html=1;container=0;" vertex="1" parent="fuLUhrhGmzlqj12-KXZk-320">
          <mxGeometry x="30" width="30" height="20" as="geometry" />
        </mxCell>
        <mxCell id="fuLUhrhGmzlqj12-KXZk-323" value="" style="rounded=0;whiteSpace=wrap;html=1;fillColor=#ffe6cc;strokeColor=#d79b00;container=0;" vertex="1" parent="fuLUhrhGmzlqj12-KXZk-320">
          <mxGeometry x="60" width="30" height="20" as="geometry" />
        </mxCell>
        <mxCell id="fuLUhrhGmzlqj12-KXZk-324" value="" style="rounded=0;whiteSpace=wrap;html=1;container=0;" vertex="1" parent="fuLUhrhGmzlqj12-KXZk-320">
          <mxGeometry x="90" width="30" height="20" as="geometry" />
        </mxCell>
        <mxCell id="fuLUhrhGmzlqj12-KXZk-325" value="" style="group" vertex="1" connectable="0" parent="fuLUhrhGmzlqj12-KXZk-350">
          <mxGeometry x="136" y="17" width="120" height="20" as="geometry" />
        </mxCell>
        <mxCell id="fuLUhrhGmzlqj12-KXZk-326" value="" style="rounded=0;whiteSpace=wrap;html=1;fillColor=#f5f5f5;strokeColor=#666666;fontColor=#333333;container=0;" vertex="1" parent="fuLUhrhGmzlqj12-KXZk-325">
          <mxGeometry width="30" height="20" as="geometry" />
        </mxCell>
        <mxCell id="fuLUhrhGmzlqj12-KXZk-327" value="" style="rounded=0;whiteSpace=wrap;html=1;container=0;" vertex="1" parent="fuLUhrhGmzlqj12-KXZk-325">
          <mxGeometry x="30" width="30" height="20" as="geometry" />
        </mxCell>
        <mxCell id="fuLUhrhGmzlqj12-KXZk-328" value="" style="rounded=0;whiteSpace=wrap;html=1;fillColor=#e1d5e7;strokeColor=#9673a6;container=0;" vertex="1" parent="fuLUhrhGmzlqj12-KXZk-325">
          <mxGeometry x="60" width="30" height="20" as="geometry" />
        </mxCell>
        <mxCell id="fuLUhrhGmzlqj12-KXZk-329" value="" style="rounded=0;whiteSpace=wrap;html=1;container=0;" vertex="1" parent="fuLUhrhGmzlqj12-KXZk-325">
          <mxGeometry x="90" width="30" height="20" as="geometry" />
        </mxCell>
        <mxCell id="fuLUhrhGmzlqj12-KXZk-330" value="" style="group" vertex="1" connectable="0" parent="fuLUhrhGmzlqj12-KXZk-350">
          <mxGeometry x="256" y="17" width="120" height="20" as="geometry" />
        </mxCell>
        <mxCell id="fuLUhrhGmzlqj12-KXZk-331" value="" style="rounded=0;whiteSpace=wrap;html=1;fillColor=#f5f5f5;strokeColor=#666666;fontColor=#333333;container=0;" vertex="1" parent="fuLUhrhGmzlqj12-KXZk-330">
          <mxGeometry width="30" height="20" as="geometry" />
        </mxCell>
        <mxCell id="fuLUhrhGmzlqj12-KXZk-332" value="" style="rounded=0;whiteSpace=wrap;html=1;container=0;" vertex="1" parent="fuLUhrhGmzlqj12-KXZk-330">
          <mxGeometry x="30" width="30" height="20" as="geometry" />
        </mxCell>
        <mxCell id="fuLUhrhGmzlqj12-KXZk-333" value="" style="rounded=0;whiteSpace=wrap;html=1;fillColor=#f5f5f5;strokeColor=#666666;fontColor=#333333;container=0;" vertex="1" parent="fuLUhrhGmzlqj12-KXZk-330">
          <mxGeometry x="60" width="30" height="20" as="geometry" />
        </mxCell>
        <mxCell id="fuLUhrhGmzlqj12-KXZk-334" value="" style="rounded=0;whiteSpace=wrap;html=1;container=0;" vertex="1" parent="fuLUhrhGmzlqj12-KXZk-330">
          <mxGeometry x="90" width="30" height="20" as="geometry" />
        </mxCell>
        <mxCell id="fuLUhrhGmzlqj12-KXZk-335" value="" style="group" vertex="1" connectable="0" parent="fuLUhrhGmzlqj12-KXZk-350">
          <mxGeometry x="376" y="17" width="120" height="20" as="geometry" />
        </mxCell>
        <mxCell id="fuLUhrhGmzlqj12-KXZk-336" value="" style="rounded=0;whiteSpace=wrap;html=1;fillColor=#f5f5f5;strokeColor=#666666;fontColor=#333333;container=0;" vertex="1" parent="fuLUhrhGmzlqj12-KXZk-335">
          <mxGeometry width="30" height="20" as="geometry" />
        </mxCell>
        <mxCell id="fuLUhrhGmzlqj12-KXZk-337" value="" style="rounded=0;whiteSpace=wrap;html=1;container=0;" vertex="1" parent="fuLUhrhGmzlqj12-KXZk-335">
          <mxGeometry x="30" width="30" height="20" as="geometry" />
        </mxCell>
        <mxCell id="fuLUhrhGmzlqj12-KXZk-338" value="" style="rounded=0;whiteSpace=wrap;html=1;fillColor=#d5e8d4;strokeColor=#82b366;container=0;" vertex="1" parent="fuLUhrhGmzlqj12-KXZk-335">
          <mxGeometry x="60" width="30" height="20" as="geometry" />
        </mxCell>
        <mxCell id="fuLUhrhGmzlqj12-KXZk-339" value="" style="rounded=0;whiteSpace=wrap;html=1;container=0;" vertex="1" parent="fuLUhrhGmzlqj12-KXZk-335">
          <mxGeometry x="90" width="30" height="20" as="geometry" />
        </mxCell>
        <mxCell id="fuLUhrhGmzlqj12-KXZk-373" value="" style="group" vertex="1" connectable="0" parent="1">
          <mxGeometry x="50" y="460" width="390" height="50" as="geometry" />
        </mxCell>
        <mxCell id="fuLUhrhGmzlqj12-KXZk-352" value="" style="rounded=1;whiteSpace=wrap;html=1;container=0;" vertex="1" parent="fuLUhrhGmzlqj12-KXZk-373">
          <mxGeometry width="390" height="50" as="geometry" />
        </mxCell>
        <mxCell id="fuLUhrhGmzlqj12-KXZk-354" value="" style="rounded=0;whiteSpace=wrap;html=1;fillColor=#f5f5f5;strokeColor=#666666;fontColor=#333333;container=0;" vertex="1" parent="fuLUhrhGmzlqj12-KXZk-373">
          <mxGeometry x="16" y="17" width="30" height="20" as="geometry" />
        </mxCell>
        <mxCell id="fuLUhrhGmzlqj12-KXZk-355" value="" style="rounded=0;whiteSpace=wrap;html=1;container=0;" vertex="1" parent="fuLUhrhGmzlqj12-KXZk-373">
          <mxGeometry x="46" y="17" width="30" height="20" as="geometry" />
        </mxCell>
        <mxCell id="fuLUhrhGmzlqj12-KXZk-356" value="" style="rounded=0;whiteSpace=wrap;html=1;fillColor=#ffe6cc;strokeColor=#d79b00;container=0;" vertex="1" parent="fuLUhrhGmzlqj12-KXZk-373">
          <mxGeometry x="76" y="17" width="30" height="20" as="geometry" />
        </mxCell>
        <mxCell id="fuLUhrhGmzlqj12-KXZk-357" value="" style="rounded=0;whiteSpace=wrap;html=1;container=0;" vertex="1" parent="fuLUhrhGmzlqj12-KXZk-373">
          <mxGeometry x="106" y="17" width="30" height="20" as="geometry" />
        </mxCell>
        <mxCell id="fuLUhrhGmzlqj12-KXZk-359" value="" style="rounded=0;whiteSpace=wrap;html=1;fillColor=#f5f5f5;strokeColor=#666666;fontColor=#333333;container=0;" vertex="1" parent="fuLUhrhGmzlqj12-KXZk-373">
          <mxGeometry x="136" y="17" width="30" height="20" as="geometry" />
        </mxCell>
        <mxCell id="fuLUhrhGmzlqj12-KXZk-360" value="" style="rounded=0;whiteSpace=wrap;html=1;container=0;" vertex="1" parent="fuLUhrhGmzlqj12-KXZk-373">
          <mxGeometry x="166" y="17" width="30" height="20" as="geometry" />
        </mxCell>
        <mxCell id="fuLUhrhGmzlqj12-KXZk-361" value="" style="rounded=0;whiteSpace=wrap;html=1;fillColor=#e1d5e7;strokeColor=#9673a6;container=0;" vertex="1" parent="fuLUhrhGmzlqj12-KXZk-373">
          <mxGeometry x="196" y="17" width="30" height="20" as="geometry" />
        </mxCell>
        <mxCell id="fuLUhrhGmzlqj12-KXZk-362" value="" style="rounded=0;whiteSpace=wrap;html=1;container=0;" vertex="1" parent="fuLUhrhGmzlqj12-KXZk-373">
          <mxGeometry x="226" y="17" width="30" height="20" as="geometry" />
        </mxCell>
        <mxCell id="fuLUhrhGmzlqj12-KXZk-364" value="" style="rounded=0;whiteSpace=wrap;html=1;fillColor=#f5f5f5;strokeColor=#666666;fontColor=#333333;container=0;" vertex="1" parent="fuLUhrhGmzlqj12-KXZk-373">
          <mxGeometry x="256" y="17" width="30" height="20" as="geometry" />
        </mxCell>
        <mxCell id="fuLUhrhGmzlqj12-KXZk-365" value="" style="rounded=0;whiteSpace=wrap;html=1;container=0;" vertex="1" parent="fuLUhrhGmzlqj12-KXZk-373">
          <mxGeometry x="286" y="17" width="30" height="20" as="geometry" />
        </mxCell>
        <mxCell id="fuLUhrhGmzlqj12-KXZk-366" value="" style="rounded=0;whiteSpace=wrap;html=1;fillColor=#f5f5f5;strokeColor=#666666;fontColor=#333333;container=0;" vertex="1" parent="fuLUhrhGmzlqj12-KXZk-373">
          <mxGeometry x="316" y="17" width="30" height="20" as="geometry" />
        </mxCell>
        <mxCell id="fuLUhrhGmzlqj12-KXZk-367" value="" style="rounded=0;whiteSpace=wrap;html=1;container=0;" vertex="1" parent="fuLUhrhGmzlqj12-KXZk-373">
          <mxGeometry x="346" y="17" width="30" height="20" as="geometry" />
        </mxCell>
        <mxCell id="fuLUhrhGmzlqj12-KXZk-374" value="" style="group" vertex="1" connectable="0" parent="1">
          <mxGeometry x="50" y="380" width="390" height="50" as="geometry" />
        </mxCell>
        <mxCell id="fuLUhrhGmzlqj12-KXZk-375" value="" style="rounded=1;whiteSpace=wrap;html=1;container=0;" vertex="1" parent="fuLUhrhGmzlqj12-KXZk-374">
          <mxGeometry width="390" height="50" as="geometry" />
        </mxCell>
        <mxCell id="fuLUhrhGmzlqj12-KXZk-376" value="" style="rounded=0;whiteSpace=wrap;html=1;fillColor=#f5f5f5;strokeColor=#666666;fontColor=#333333;container=0;" vertex="1" parent="fuLUhrhGmzlqj12-KXZk-374">
          <mxGeometry x="16" y="17" width="30" height="20" as="geometry" />
        </mxCell>
        <mxCell id="fuLUhrhGmzlqj12-KXZk-377" value="" style="rounded=0;whiteSpace=wrap;html=1;container=0;" vertex="1" parent="fuLUhrhGmzlqj12-KXZk-374">
          <mxGeometry x="46" y="17" width="30" height="20" as="geometry" />
        </mxCell>
        <mxCell id="fuLUhrhGmzlqj12-KXZk-378" value="" style="rounded=0;whiteSpace=wrap;html=1;fillColor=#ffe6cc;strokeColor=#d79b00;container=0;" vertex="1" parent="fuLUhrhGmzlqj12-KXZk-374">
          <mxGeometry x="76" y="17" width="30" height="20" as="geometry" />
        </mxCell>
        <mxCell id="fuLUhrhGmzlqj12-KXZk-379" value="" style="rounded=0;whiteSpace=wrap;html=1;container=0;" vertex="1" parent="fuLUhrhGmzlqj12-KXZk-374">
          <mxGeometry x="106" y="17" width="30" height="20" as="geometry" />
        </mxCell>
        <mxCell id="fuLUhrhGmzlqj12-KXZk-380" value="" style="rounded=0;whiteSpace=wrap;html=1;fillColor=#f5f5f5;strokeColor=#666666;fontColor=#333333;container=0;" vertex="1" parent="fuLUhrhGmzlqj12-KXZk-374">
          <mxGeometry x="136" y="17" width="30" height="20" as="geometry" />
        </mxCell>
        <mxCell id="fuLUhrhGmzlqj12-KXZk-381" value="" style="rounded=0;whiteSpace=wrap;html=1;container=0;" vertex="1" parent="fuLUhrhGmzlqj12-KXZk-374">
          <mxGeometry x="166" y="17" width="30" height="20" as="geometry" />
        </mxCell>
        <mxCell id="fuLUhrhGmzlqj12-KXZk-382" value="" style="rounded=0;whiteSpace=wrap;html=1;fillColor=#e1d5e7;strokeColor=#9673a6;container=0;" vertex="1" parent="fuLUhrhGmzlqj12-KXZk-374">
          <mxGeometry x="196" y="17" width="30" height="20" as="geometry" />
        </mxCell>
        <mxCell id="fuLUhrhGmzlqj12-KXZk-383" value="" style="rounded=0;whiteSpace=wrap;html=1;container=0;" vertex="1" parent="fuLUhrhGmzlqj12-KXZk-374">
          <mxGeometry x="226" y="17" width="30" height="20" as="geometry" />
        </mxCell>
        <mxCell id="fuLUhrhGmzlqj12-KXZk-384" value="" style="rounded=0;whiteSpace=wrap;html=1;fillColor=#f5f5f5;strokeColor=#666666;fontColor=#333333;container=0;" vertex="1" parent="fuLUhrhGmzlqj12-KXZk-374">
          <mxGeometry x="256" y="17" width="30" height="20" as="geometry" />
        </mxCell>
        <mxCell id="fuLUhrhGmzlqj12-KXZk-385" value="" style="rounded=0;whiteSpace=wrap;html=1;container=0;" vertex="1" parent="fuLUhrhGmzlqj12-KXZk-374">
          <mxGeometry x="286" y="17" width="30" height="20" as="geometry" />
        </mxCell>
        <mxCell id="fuLUhrhGmzlqj12-KXZk-386" value="" style="rounded=0;whiteSpace=wrap;html=1;fillColor=#f5f5f5;strokeColor=#666666;fontColor=#333333;container=0;" vertex="1" parent="fuLUhrhGmzlqj12-KXZk-374">
          <mxGeometry x="316" y="17" width="30" height="20" as="geometry" />
        </mxCell>
        <mxCell id="fuLUhrhGmzlqj12-KXZk-387" value="" style="rounded=0;whiteSpace=wrap;html=1;container=0;" vertex="1" parent="fuLUhrhGmzlqj12-KXZk-374">
          <mxGeometry x="346" y="17" width="30" height="20" as="geometry" />
        </mxCell>
        <mxCell id="fuLUhrhGmzlqj12-KXZk-398" style="edgeStyle=none;rounded=0;orthogonalLoop=1;jettySize=auto;html=1;exitX=0.5;exitY=0;exitDx=0;exitDy=0;entryX=0.5;entryY=1;entryDx=0;entryDy=0;fontSize=12;endSize=3;" edge="1" parent="1" source="fuLUhrhGmzlqj12-KXZk-388" target="fuLUhrhGmzlqj12-KXZk-395">
          <mxGeometry relative="1" as="geometry" />
        </mxCell>
        <mxCell id="fuLUhrhGmzlqj12-KXZk-388" value="task1" style="rounded=1;whiteSpace=wrap;html=1;fontSize=12;fillColor=#f5f5f5;strokeColor=#666666;strokeWidth=2;fontColor=#333333;" vertex="1" parent="1">
          <mxGeometry x="58" y="230" width="42" height="130" as="geometry" />
        </mxCell>
        <mxCell id="fuLUhrhGmzlqj12-KXZk-399" style="edgeStyle=none;rounded=0;orthogonalLoop=1;jettySize=auto;html=1;exitX=0.5;exitY=0;exitDx=0;exitDy=0;entryX=0.5;entryY=1;entryDx=0;entryDy=0;fontSize=12;endSize=3;" edge="1" parent="1" source="fuLUhrhGmzlqj12-KXZk-390" target="fuLUhrhGmzlqj12-KXZk-396">
          <mxGeometry relative="1" as="geometry" />
        </mxCell>
        <mxCell id="fuLUhrhGmzlqj12-KXZk-390" value="task2" style="rounded=1;whiteSpace=wrap;html=1;fontSize=12;fillColor=#fff2cc;strokeColor=#d6b656;strokeWidth=2;" vertex="1" parent="1">
          <mxGeometry x="162" y="230" width="42" height="130" as="geometry" />
        </mxCell>
        <mxCell id="fuLUhrhGmzlqj12-KXZk-400" style="edgeStyle=none;rounded=0;orthogonalLoop=1;jettySize=auto;html=1;exitX=0.5;exitY=0;exitDx=0;exitDy=0;entryX=0.5;entryY=1;entryDx=0;entryDy=0;fontSize=12;endSize=3;" edge="1" parent="1" source="fuLUhrhGmzlqj12-KXZk-391" target="fuLUhrhGmzlqj12-KXZk-397">
          <mxGeometry relative="1" as="geometry" />
        </mxCell>
        <mxCell id="fuLUhrhGmzlqj12-KXZk-391" value="taskN" style="rounded=1;whiteSpace=wrap;html=1;fontSize=12;fillColor=#dae8fc;strokeColor=#6c8ebf;strokeWidth=2;" vertex="1" parent="1">
          <mxGeometry x="383" y="230" width="42" height="130" as="geometry" />
        </mxCell>
        <mxCell id="fuLUhrhGmzlqj12-KXZk-392" value="..." style="text;html=1;align=center;verticalAlign=middle;resizable=0;points=[];autosize=1;strokeColor=none;fillColor=none;fontSize=12;" vertex="1" parent="1">
          <mxGeometry x="280" y="280" width="30" height="30" as="geometry" />
        </mxCell>
        <mxCell id="fuLUhrhGmzlqj12-KXZk-393" value="Dense Layer" style="text;html=1;align=center;verticalAlign=middle;resizable=0;points=[];autosize=1;strokeColor=none;fillColor=none;fontSize=16;" vertex="1" parent="1">
          <mxGeometry x="-311" y="440" width="110" height="30" as="geometry" />
        </mxCell>
        <mxCell id="fuLUhrhGmzlqj12-KXZk-394" value="Split Tower" style="text;html=1;align=center;verticalAlign=middle;resizable=0;points=[];autosize=1;strokeColor=none;fillColor=none;fontSize=16;" vertex="1" parent="1">
          <mxGeometry x="-311" y="300" width="100" height="30" as="geometry" />
        </mxCell>
        <mxCell id="fuLUhrhGmzlqj12-KXZk-395" value="" style="ellipse;whiteSpace=wrap;html=1;aspect=fixed;fillColor=#f5f5f5;strokeColor=#666666;fontColor=#333333;" vertex="1" parent="1">
          <mxGeometry x="64" y="180" width="30" height="30" as="geometry" />
        </mxCell>
        <mxCell id="fuLUhrhGmzlqj12-KXZk-396" value="" style="ellipse;whiteSpace=wrap;html=1;aspect=fixed;fillColor=#fff2cc;strokeColor=#d6b656;" vertex="1" parent="1">
          <mxGeometry x="168" y="180" width="30" height="30" as="geometry" />
        </mxCell>
        <mxCell id="fuLUhrhGmzlqj12-KXZk-397" value="" style="ellipse;whiteSpace=wrap;html=1;aspect=fixed;fillColor=#dae8fc;strokeColor=#6c8ebf;" vertex="1" parent="1">
          <mxGeometry x="389" y="180" width="30" height="30" as="geometry" />
        </mxCell>
        <mxCell id="fuLUhrhGmzlqj12-KXZk-401" value="Ouput Layer" style="text;html=1;align=center;verticalAlign=middle;resizable=0;points=[];autosize=1;strokeColor=none;fillColor=none;fontSize=16;" vertex="1" parent="1">
          <mxGeometry x="-311" y="190" width="110" height="30" as="geometry" />
        </mxCell>
        <mxCell id="fuLUhrhGmzlqj12-KXZk-416" value="256" style="text;html=1;align=center;verticalAlign=middle;resizable=0;points=[];autosize=1;strokeColor=none;fillColor=none;fontSize=12;" vertex="1" parent="1">
          <mxGeometry x="447" y="410" width="40" height="30" as="geometry" />
        </mxCell>
        <mxCell id="fuLUhrhGmzlqj12-KXZk-417" value="256" style="text;html=1;align=center;verticalAlign=middle;resizable=0;points=[];autosize=1;strokeColor=none;fillColor=none;fontSize=12;" vertex="1" parent="1">
          <mxGeometry x="453" y="480" width="40" height="30" as="geometry" />
        </mxCell>
        <mxCell id="fuLUhrhGmzlqj12-KXZk-418" value="512" style="text;html=1;align=center;verticalAlign=middle;resizable=0;points=[];autosize=1;strokeColor=none;fillColor=none;fontSize=12;" vertex="1" parent="1">
          <mxGeometry x="503" y="570" width="40" height="30" as="geometry" />
        </mxCell>
        <mxCell id="fuLUhrhGmzlqj12-KXZk-419" value="8256" style="text;html=1;align=center;verticalAlign=middle;resizable=0;points=[];autosize=1;strokeColor=none;fillColor=none;fontSize=12;" vertex="1" parent="1">
          <mxGeometry x="743" y="650" width="50" height="30" as="geometry" />
        </mxCell>
        <mxCell id="fuLUhrhGmzlqj12-KXZk-420" value="8256" style="text;html=1;align=center;verticalAlign=middle;resizable=0;points=[];autosize=1;strokeColor=none;fillColor=none;fontSize=12;" vertex="1" parent="1">
          <mxGeometry x="744" y="755" width="50" height="30" as="geometry" />
        </mxCell>
        <mxCell id="fuLUhrhGmzlqj12-KXZk-421" value="8256" style="text;html=1;align=center;verticalAlign=middle;resizable=0;points=[];autosize=1;strokeColor=none;fillColor=none;fontSize=12;" vertex="1" parent="1">
          <mxGeometry x="745" y="860" width="50" height="30" as="geometry" />
        </mxCell>
        <mxCell id="fuLUhrhGmzlqj12-KXZk-422" value="" style="rounded=0;whiteSpace=wrap;html=1;container=0;fillColor=#f8cecc;strokeColor=#b85450;" vertex="1" parent="1">
          <mxGeometry x="723" y="992.5" width="30" height="20" as="geometry" />
        </mxCell>
        <mxCell id="fuLUhrhGmzlqj12-KXZk-423" value="" style="rounded=0;whiteSpace=wrap;html=1;container=0;" vertex="1" parent="1">
          <mxGeometry x="753" y="993" width="30" height="20" as="geometry" />
        </mxCell>
        <mxCell id="fuLUhrhGmzlqj12-KXZk-425" value="" style="group" vertex="1" connectable="0" parent="1">
          <mxGeometry x="633" y="930" width="120" height="20" as="geometry" />
        </mxCell>
        <mxCell id="fuLUhrhGmzlqj12-KXZk-426" value="" style="rounded=0;whiteSpace=wrap;html=1;fillColor=#f5f5f5;strokeColor=#666666;fontColor=#333333;container=0;" vertex="1" parent="fuLUhrhGmzlqj12-KXZk-425">
          <mxGeometry width="30" height="20" as="geometry" />
        </mxCell>
        <mxCell id="fuLUhrhGmzlqj12-KXZk-427" value="" style="rounded=0;whiteSpace=wrap;html=1;container=0;" vertex="1" parent="fuLUhrhGmzlqj12-KXZk-425">
          <mxGeometry x="30" width="30" height="20" as="geometry" />
        </mxCell>
        <mxCell id="fuLUhrhGmzlqj12-KXZk-428" value="" style="rounded=0;whiteSpace=wrap;html=1;fillColor=#f5f5f5;strokeColor=#666666;fontColor=#333333;container=0;" vertex="1" parent="fuLUhrhGmzlqj12-KXZk-425">
          <mxGeometry x="60" width="30" height="20" as="geometry" />
        </mxCell>
        <mxCell id="fuLUhrhGmzlqj12-KXZk-429" value="" style="rounded=0;whiteSpace=wrap;html=1;container=0;" vertex="1" parent="fuLUhrhGmzlqj12-KXZk-425">
          <mxGeometry x="90" width="30" height="20" as="geometry" />
        </mxCell>
        <mxCell id="fuLUhrhGmzlqj12-KXZk-430" style="edgeStyle=none;rounded=0;orthogonalLoop=1;jettySize=auto;html=1;exitX=0;exitY=0;exitDx=0;exitDy=0;fontSize=12;endSize=3;dashed=1;" edge="1" parent="1" source="fuLUhrhGmzlqj12-KXZk-153">
          <mxGeometry relative="1" as="geometry">
            <mxPoint x="693" y="950" as="targetPoint" />
          </mxGeometry>
        </mxCell>
        <mxCell id="fuLUhrhGmzlqj12-KXZk-431" value="DenseLayer" style="text;html=1;align=center;verticalAlign=middle;resizable=0;points=[];autosize=1;strokeColor=none;fillColor=none;" vertex="1" parent="1">
          <mxGeometry x="800" y="930" width="90" height="30" as="geometry" />
        </mxCell>
        <mxCell id="fuLUhrhGmzlqj12-KXZk-432" style="edgeStyle=none;rounded=0;orthogonalLoop=1;jettySize=auto;html=1;exitX=0;exitY=0;exitDx=0;exitDy=0;dashed=1;fontSize=12;endSize=3;" edge="1" parent="1" source="fuLUhrhGmzlqj12-KXZk-428">
          <mxGeometry relative="1" as="geometry">
            <mxPoint x="693.4705882352941" y="900" as="targetPoint" />
          </mxGeometry>
        </mxCell>
        <mxCell id="fuLUhrhGmzlqj12-KXZk-433" value="64" style="text;html=1;align=center;verticalAlign=middle;resizable=0;points=[];autosize=1;strokeColor=none;fillColor=none;fontSize=12;" vertex="1" parent="1">
          <mxGeometry x="574" y="940" width="40" height="30" as="geometry" />
        </mxCell>
        <mxCell id="fuLUhrhGmzlqj12-KXZk-436" value="64" style="text;html=1;align=center;verticalAlign=middle;resizable=0;points=[];autosize=1;strokeColor=none;fillColor=none;fontSize=12;" vertex="1" parent="1">
          <mxGeometry x="750" y="945" width="40" height="30" as="geometry" />
        </mxCell>
      </root>
    </mxGraphModel>
  </diagram>
</mxfile>
